<svg xmlns="http://www.w3.org/2000/svg" xmlns:xlink="http://www.w3.org/1999/xlink" xmlns:lucid="lucid" width="522" height="487"><g transform="translate(-119 -114)" lucid:page-tab-id="0_0"><path d="M120 137.5a22.5 22.5 0 0 1 22.5-22.5h215a22.5 22.5 0 0 1 22.5 22.5 22.5 22.5 0 0 1-22.5 22.5h-215a22.5 22.5 0 0 1-22.5-22.5z" stroke="#1071e5" stroke-width="2" fill="#e7f1ff"/><use xlink:href="#a" transform="matrix(1,0,0,1,150.5,123) translate(0 10.819878472222221)"/><use xlink:href="#b" transform="matrix(1,0,0,1,150.5,123) translate(14.073350694444443 10.819878472222221)"/><use xlink:href="#c" transform="matrix(1,0,0,1,150.5,123) translate(22.309027777777775 10.819878472222221)"/><use xlink:href="#d" transform="matrix(1,0,0,1,150.5,123) translate(28.417968749999996 10.819878472222221)"/><use xlink:href="#e" transform="matrix(1,0,0,1,150.5,123) translate(57.866753472222214 10.819878472222221)"/><use xlink:href="#f" transform="matrix(1,0,0,1,150.5,123) translate(71.18055555555554 10.819878472222221)"/><use xlink:href="#g" transform="matrix(1,0,0,1,150.5,123) translate(109.08203124999999 10.819878472222221)"/><use xlink:href="#h" transform="matrix(1,0,0,1,150.5,123) translate(128.02191840277777 10.819878472222221)"/><use xlink:href="#i" transform="matrix(1,0,0,1,150.5,123) translate(0 24.26388888888889)"/><use xlink:href="#e" transform="matrix(1,0,0,1,150.5,123) translate(29.638671875 24.26388888888889)"/><use xlink:href="#j" transform="matrix(1,0,0,1,150.5,123) translate(42.95247395833333 24.26388888888889)"/><path d="M380 375a30 30 0 0 1 30-30h200a30 30 0 0 1 30 30v55a30 30 0 0 1-30 30H410a30 30 0 0 1-30-30z" stroke="#555" stroke-width="2" fill="#f2f2f2"/><g><use xlink:href="#k" transform="matrix(1,0,0,1,418,353) translate(0 10.987847222222218)"/><use xlink:href="#l" transform="matrix(1,0,0,1,418,353) translate(28.336588541666664 10.987847222222218)"/><use xlink:href="#m" transform="matrix(1,0,0,1,418,353) translate(40.01736111111111 10.987847222222218)"/><use xlink:href="#n" transform="matrix(1,0,0,1,418,353) translate(59.82530381944444 10.987847222222218)"/><use xlink:href="#o" transform="matrix(1,0,0,1,418,353) translate(126.20985243055554 10.987847222222218)"/><use xlink:href="#p" transform="matrix(1,0,0,1,418,353) translate(146.07747395833331 10.987847222222218)"/><use xlink:href="#q" transform="matrix(1,0,0,1,418,353) translate(0 24.431857638888886)"/><use xlink:href="#r" transform="matrix(1,0,0,1,418,353) translate(37.65190972222222 24.431857638888886)"/><use xlink:href="#c" transform="matrix(1,0,0,1,418,353) translate(129.41080729166669 24.431857638888886)"/><use xlink:href="#s" transform="matrix(1,0,0,1,418,353) translate(135.5197482638889 24.431857638888886)"/><use xlink:href="#t" transform="matrix(1,0,0,1,418,353) translate(0 37.87586805555556)"/><use xlink:href="#m" transform="matrix(1,0,0,1,418,353) translate(25.113932291666668 37.87586805555556)"/><use xlink:href="#u" transform="matrix(1,0,0,1,418,353) translate(44.921875 37.87586805555556)"/><use xlink:href="#v" transform="matrix(1,0,0,1,418,353) translate(0 51.319878472222214)"/><use xlink:href="#w" transform="matrix(1,0,0,1,418,353) translate(0 64.76388888888889)"/><use xlink:href="#x" transform="matrix(1,0,0,1,418,353) translate(25.44487847222222 64.76388888888889)"/><use xlink:href="#y" transform="matrix(1,0,0,1,418,353) translate(0 78.20789930555556)"/><use xlink:href="#y" transform="matrix(1,0,0,1,418,353) translate(0 91.65190972222223)"/><use xlink:href="#z" transform="matrix(1,0,0,1,418,353) translate(0 105.0959201388889)"/></g><path d="M380 530a30 30 0 0 1 30-30h200a30 30 0 0 1 30 30v40a30 30 0 0 1-30 30H410a30 30 0 0 1-30-30z" stroke="#555" stroke-width="2" fill="#f2f2f2"/><g><use xlink:href="#A" transform="matrix(1,0,0,1,418,508) translate(0 10.93185763888889)"/><use xlink:href="#B" transform="matrix(1,0,0,1,418,508) translate(27.229817708333332 10.93185763888889)"/><use xlink:href="#C" transform="matrix(1,0,0,1,418,508) translate(49.70703125 10.93185763888889)"/><use xlink:href="#D" transform="matrix(1,0,0,1,418,508) translate(85.10199652777777 10.93185763888889)"/><use xlink:href="#E" transform="matrix(1,0,0,1,418,508) translate(104.94249131944443 10.93185763888889)"/><use xlink:href="#F" transform="matrix(1,0,0,1,418,508) translate(162.0171440972222 10.93185763888889)"/><use xlink:href="#G" transform="matrix(1,0,0,1,418,508) translate(0 24.375868055555557)"/><use xlink:href="#H" transform="matrix(1,0,0,1,418,508) translate(20.29079861111111 24.375868055555557)"/><use xlink:href="#I" transform="matrix(1,0,0,1,418,508) translate(61.9140625 24.375868055555557)"/><use xlink:href="#J" transform="matrix(1,0,0,1,418,508) translate(88.48198784722221 24.375868055555557)"/><use xlink:href="#v" transform="matrix(1,0,0,1,418,508) translate(0 37.81987847222223)"/><use xlink:href="#w" transform="matrix(1,0,0,1,418,508) translate(0 51.263888888888886)"/><use xlink:href="#x" transform="matrix(1,0,0,1,418,508) translate(25.44487847222222 51.263888888888886)"/><use xlink:href="#K" transform="matrix(1,0,0,1,418,508) translate(0 64.70789930555556)"/><use xlink:href="#L" transform="matrix(1,0,0,1,418,508) translate(0 78.15190972222223)"/></g><path d="M120 480a20 20 0 0 1 20-20h220a20 20 0 0 1 20 20 20 20 0 0 1-20 20H140a20 20 0 0 1-20-20z" stroke="#1071e5" stroke-width="2" fill="#e7f1ff"/><g><use xlink:href="#M" transform="matrix(1,0,0,1,148,468) translate(0 16.041883680555557)"/><use xlink:href="#N" transform="matrix(1,0,0,1,148,468) translate(25.358072916666664 16.041883680555557)"/><use xlink:href="#O" transform="matrix(1,0,0,1,148,468) translate(56.461588541666664 16.041883680555557)"/><use xlink:href="#P" transform="matrix(1,0,0,1,148,468) translate(89.72981770833334 16.041883680555557)"/><use xlink:href="#Q" transform="matrix(1,0,0,1,148,468) translate(107.80707465277779 16.041883680555557)"/><use xlink:href="#R" transform="matrix(1,0,0,1,148,468) translate(143.37022569444446 16.041883680555557)"/><use xlink:href="#S" transform="matrix(1,0,0,1,148,468) translate(166.10243055555557 16.041883680555557)"/></g><path d="M380 190a30 30 0 0 1 30-30h200a30 30 0 0 1 30 30v80a30 30 0 0 1-30 30H410a30 30 0 0 1-30-30z" stroke="#555" stroke-width="2" fill="#f2f2f2"/><g><use xlink:href="#T" transform="matrix(1,0,0,1,418,168) translate(0 10.765842013888882)"/><use xlink:href="#U" transform="matrix(1,0,0,1,418,168) translate(23.046875 10.765842013888882)"/><use xlink:href="#B" transform="matrix(1,0,0,1,418,168) translate(51.32378472222222 10.765842013888882)"/><use xlink:href="#h" transform="matrix(1,0,0,1,418,168) translate(73.80099826388889 10.765842013888882)"/><use xlink:href="#V" transform="matrix(1,0,0,1,418,168) translate(0 24.20985243055555)"/><use xlink:href="#W" transform="matrix(1,0,0,1,418,168) translate(61.68077256944445 24.20985243055555)"/><use xlink:href="#X" transform="matrix(1,0,0,1,418,168) translate(103.52647569444446 24.20985243055555)"/><use xlink:href="#l" transform="matrix(1,0,0,1,418,168) translate(126.35633680555557 24.20985243055555)"/><use xlink:href="#Y" transform="matrix(1,0,0,1,418,168) translate(138.03710937500003 24.20985243055555)"/><use xlink:href="#Z" transform="matrix(1,0,0,1,418,168) translate(0 37.653862847222214)"/><use xlink:href="#e" transform="matrix(1,0,0,1,418,168) translate(23.301866319444443 37.653862847222214)"/><use xlink:href="#aa" transform="matrix(1,0,0,1,418,168) translate(36.61566840277777 37.653862847222214)"/><use xlink:href="#ab" transform="matrix(1,0,0,1,418,168) translate(64.63758680555554 37.653862847222214)"/><use xlink:href="#ac" transform="matrix(1,0,0,1,418,168) translate(82.44357638888887 37.653862847222214)"/><use xlink:href="#ad" transform="matrix(1,0,0,1,418,168) translate(104.82855902777776 37.653862847222214)"/><use xlink:href="#e" transform="matrix(1,0,0,1,418,168) translate(133.48524305555554 37.653862847222214)"/><use xlink:href="#ae" transform="matrix(1,0,0,1,418,168) translate(146.79904513888889 37.653862847222214)"/><use xlink:href="#af" transform="matrix(1,0,0,1,418,168) translate(0 51.097873263888886)"/><use xlink:href="#v" transform="matrix(1,0,0,1,418,168) translate(0 64.54188368055556)"/><use xlink:href="#w" transform="matrix(1,0,0,1,418,168) translate(0 77.98589409722223)"/><use xlink:href="#x" transform="matrix(1,0,0,1,418,168) translate(25.44487847222222 77.98589409722223)"/><use xlink:href="#ag" transform="matrix(1,0,0,1,418,168) translate(0 91.42990451388889)"/><use xlink:href="#ah" transform="matrix(1,0,0,1,418,168) translate(0 104.87391493055557)"/><use xlink:href="#ai" transform="matrix(1,0,0,1,418,168) translate(0 118.31792534722223)"/></g><path d="M120 322.5a22.5 22.5 0 0 1 22.5-22.5h215a22.5 22.5 0 0 1 22.5 22.5 22.5 22.5 0 0 1-22.5 22.5h-215a22.5 22.5 0 0 1-22.5-22.5z" stroke="#1071e5" stroke-width="2" fill="#e7f1ff"/><g><use xlink:href="#aj" transform="matrix(1,0,0,1,150.5,308) translate(0 10.819878472222221)"/><use xlink:href="#ak" transform="matrix(1,0,0,1,150.5,308) translate(41.63411458333333 10.819878472222221)"/><use xlink:href="#al" transform="matrix(1,0,0,1,150.5,308) translate(59.39127604166666 10.819878472222221)"/><use xlink:href="#m" transform="matrix(1,0,0,1,150.5,308) translate(105.25716145833331 10.819878472222221)"/><use xlink:href="#am" transform="matrix(1,0,0,1,150.5,308) translate(125.06510416666664 10.819878472222221)"/><use xlink:href="#an" transform="matrix(1,0,0,1,150.5,308) translate(0 24.26388888888889)"/><use xlink:href="#ao" transform="matrix(1,0,0,1,150.5,308) translate(32.839626736111114 24.26388888888889)"/><use xlink:href="#f" transform="matrix(1,0,0,1,150.5,308) translate(70.92013888888889 24.26388888888889)"/><use xlink:href="#ap" transform="matrix(1,0,0,1,150.5,308) translate(108.82161458333333 24.26388888888889)"/></g><defs><path d="M180 0v-1490h190v644h782v-644h190V0h-190v-678H370V0H180" id="aq"/><path d="M158 0v-1118h180V0H158zm91-1301c-68 0-125-53-125-119s57-119 125-119c69 0 126 53 126 119s-57 119-126 119" id="ar"/><g id="a"><use transform="matrix(0.005425347222222222,0,0,0.005425347222222222,0,0)" xlink:href="#aq"/><use transform="matrix(0.005425347222222222,0,0,0.005425347222222222,8.257378472222221,0)" xlink:href="#ar"/></g><path d="M798-719v166H144v-166h654" id="as"/><use transform="matrix(0.005425347222222222,0,0,0.005425347222222222,0,0)" xlink:href="#as" id="b"/><path d="M370-1490V0H180v-1490h190" id="at"/><use transform="matrix(0.005425347222222222,0,0,0.005425347222222222,0,0)" xlink:href="#at" id="c"/><path d="M338-670V0H158v-1118h173l1 207c72-158 192-221 342-221 226 0 378 139 378 422V0H872v-695c0-172-96-275-252-275-161 0-282 109-282 300" id="au"/><path d="M628 24c-324 0-524-230-524-574 0-343 198-582 503-582 237 0 487 146 487 559v75H286c9 234 145 362 343 362 132 0 231-58 273-172l174 48C1024-91 857 24 628 24zM287-650h624c-17-190-120-322-304-322-192 0-309 151-320 322" id="av"/><path d="M577 24c-279 0-473-224-473-580 0-354 195-576 474-576 218 0 287 134 324 193h14v-551h180V0H922v-173h-20C865-111 790 24 577 24zm27-161c203 0 314-172 314-421 0-247-108-413-314-413-212 0-317 181-317 413 0 235 108 421 317 421" id="aw"/><g id="d"><use transform="matrix(0.005425347222222222,0,0,0.005425347222222222,0,0)" xlink:href="#au"/><use transform="matrix(0.005425347222222222,0,0,0.005425347222222222,6.564670138888888,0)" xlink:href="#av"/><use transform="matrix(0.005425347222222222,0,0,0.005425347222222222,13.042534722222221,0)" xlink:href="#av"/><use transform="matrix(0.005425347222222222,0,0,0.005425347222222222,19.520399305555554,0)" xlink:href="#aw"/></g><path d="M598-1118v154H368v674c0 100 37 144 132 144 23 0 62-6 92-12L629-6c-37 13-88 20-134 20-193 0-307-107-307-290v-688H20v-154h168v-266h180v266h230" id="ax"/><path d="M613 24c-304 0-509-231-509-576 0-350 205-580 509-580 305 0 511 230 511 580 0 345-206 576-511 576zm0-161c226 0 329-195 329-415 0-222-103-419-329-419-223 0-326 196-326 419 0 220 103 415 326 415" id="ay"/><g id="e"><use transform="matrix(0.005425347222222222,0,0,0.005425347222222222,0,0)" xlink:href="#ax"/><use transform="matrix(0.005425347222222222,0,0,0.005425347222222222,3.526475694444444,0)" xlink:href="#ay"/></g><path d="M613 24c-304 0-509-231-509-576 0-350 205-580 509-580 216 0 392 114 453 309l-173 49c-33-115-133-197-280-197-223 0-326 196-326 419 0 220 103 415 326 415 150 0 252-85 285-206l172 49C1010-95 832 24 613 24" id="az"/><path d="M471 26C259 26 90-98 90-318c0-256 228-303 435-329 202-27 287-16 287-108 0-139-79-219-234-219-161 0-248 86-283 164l-173-57c86-203 278-265 451-265 150 0 419 46 419 395V0H815v-152h-12C765-73 660 26 471 26zm31-159c199 0 310-134 310-271v-155c-30 35-226 55-295 64-131 17-246 59-246 186 0 116 97 176 231 176" id="aA"/><path d="M338-1490V0H158v-1490h180" id="aB"/><g id="f"><use transform="matrix(0.005425347222222222,0,0,0.005425347222222222,0,0)" xlink:href="#az"/><use transform="matrix(0.005425347222222222,0,0,0.005425347222222222,6.456163194444445,0)" xlink:href="#aA"/><use transform="matrix(0.005425347222222222,0,0,0.005425347222222222,12.6953125,0)" xlink:href="#au"/><use transform="matrix(0.005425347222222222,0,0,0.005425347222222222,19.25998263888889,0)" xlink:href="#az"/><use transform="matrix(0.005425347222222222,0,0,0.005425347222222222,25.60763888888889,0)" xlink:href="#av"/><use transform="matrix(0.005425347222222222,0,0,0.005425347222222222,32.08550347222222,0)" xlink:href="#aB"/></g><path d="M158 0v-1118h175l1 205c55-151 181-225 313-225 147 0 245 90 285 228 53-141 190-228 352-228 194 0 352 125 352 384V0h-181v-749c0-161-105-225-225-225-151 0-243 103-243 244V0H807v-767c0-124-93-207-219-207-131 0-250 92-250 270V0H158" id="aC"/><path d="M140 405l46-156c120 36 205 19 263-150l32-93L54-1118h197c107 313 237 620 324 950 87-331 219-637 326-950h196L606 167c-68 178-176 259-334 259-64 0-113-12-132-21" id="aD"/><g id="g"><use transform="matrix(0.005425347222222222,0,0,0.005425347222222222,0,0)" xlink:href="#aC"/><use transform="matrix(0.005425347222222222,0,0,0.005425347222222222,9.5703125,0)" xlink:href="#aD"/></g><path d="M537 14c-226 0-379-139-379-422v-710h180v695c0 172 97 275 253 275 160 0 281-109 281-300v-670h181V0H879v-209C806-46 684 14 537 14" id="aE"/><path d="M158 418v-1536h174v179h20c37-59 106-193 324-193 279 0 474 222 474 576 0 356-194 580-473 580-213 0-288-135-325-197h-14v591H158zm492-555c209 0 317-186 317-421 0-232-105-413-317-413-206 0-314 166-314 413 0 249 111 421 314 421" id="aF"/><path d="M611 442c-248 0-391-105-460-228l146-94c47 65 117 165 314 165 178 0 307-82 307-266v-224h-17C863-141 792-18 576-18c-268 0-472-195-472-546 0-346 197-568 476-568 216 0 288 133 326 193h17v-179h175V29c0 289-215 413-487 413zm-5-620c203 0 314-146 314-390 0-237-108-403-314-403-213 0-319 180-319 403 0 230 109 390 319 390" id="aG"/><g id="h"><use transform="matrix(0.005425347222222222,0,0,0.005425347222222222,0,0)" xlink:href="#aE"/><use transform="matrix(0.005425347222222222,0,0,0.005425347222222222,6.570095486111111,0)" xlink:href="#aF"/><use transform="matrix(0.005425347222222222,0,0,0.005425347222222222,13.373480902777777,0)" xlink:href="#az"/><use transform="matrix(0.005425347222222222,0,0,0.005425347222222222,19.72113715277778,0)" xlink:href="#ay"/><use transform="matrix(0.005425347222222222,0,0,0.005425347222222222,26.383463541666664,0)" xlink:href="#aC"/><use transform="matrix(0.005425347222222222,0,0,0.005425347222222222,36.116536458333336,0)" xlink:href="#ar"/><use transform="matrix(0.005425347222222222,0,0,0.005425347222222222,38.80750868055556,0)" xlink:href="#au"/><use transform="matrix(0.005425347222222222,0,0,0.005425347222222222,45.37217881944444,0)" xlink:href="#aG"/></g><path d="M678-1118v154H420V0H240v-964H20v-154h220v-149c0-194 155-293 318-293 85 0 141 18 168 30l-50 154c-19-6-47-17-97-17-111 0-159 58-159 166v109h258" id="aH"/><path d="M338-670V0H158v-1490h180v566c73-149 190-208 336-208 226 0 379 139 379 422V0H872v-695c0-172-96-275-252-275-161 0-282 109-282 300" id="aI"/><g id="i"><use transform="matrix(0.005425347222222222,0,0,0.005425347222222222,0,0)" xlink:href="#aH"/><use transform="matrix(0.005425347222222222,0,0,0.005425347222222222,4.112413194444445,0)" xlink:href="#aB"/><use transform="matrix(0.005425347222222222,0,0,0.005425347222222222,6.803385416666666,0)" xlink:href="#ar"/><use transform="matrix(0.005425347222222222,0,0,0.005425347222222222,9.49435763888889,0)" xlink:href="#aG"/><use transform="matrix(0.005425347222222222,0,0,0.005425347222222222,16.30859375,0)" xlink:href="#aI"/><use transform="matrix(0.005425347222222222,0,0,0.005425347222222222,22.87868923611111,0)" xlink:href="#ax"/></g><path d="M52 0l541-1490h220L1361 0h-200l-149-416H398L254 0H52zm404-582h497c-103-290-145-390-251-756-108 377-145 460-246 756" id="aJ"/><g id="j"><use transform="matrix(0.005425347222222222,0,0,0.005425347222222222,0,0)" xlink:href="#aJ"/><use transform="matrix(0.005425347222222222,0,0,0.005425347222222222,7.449001736111111,0)" xlink:href="#ax"/><use transform="matrix(0.005425347222222222,0,0,0.005425347222222222,11.083984375,0)" xlink:href="#aB"/><use transform="matrix(0.005425347222222222,0,0,0.005425347222222222,13.774956597222221,0)" xlink:href="#aA"/><use transform="matrix(0.005425347222222222,0,0,0.005425347222222222,20.01410590277778,0)" xlink:href="#au"/><use transform="matrix(0.005425347222222222,0,0,0.005425347222222222,26.578776041666664,0)" xlink:href="#ax"/><use transform="matrix(0.005425347222222222,0,0,0.005425347222222222,30.268012152777775,0)" xlink:href="#aA"/></g><path d="M158 0v-1118h174v172h12c41-113 157-188 290-188 26 0 70 2 91 3v181c-11-2-60-10-108-10-161 0-279 109-279 260V0H158" id="aK"/><g id="k"><use transform="matrix(0.005425347222222222,0,0,0.005425347222222222,0,0)" xlink:href="#aq"/><use transform="matrix(0.005425347222222222,0,0,0.005425347222222222,8.257378472222221,0)" xlink:href="#av"/><use transform="matrix(0.005425347222222222,0,0,0.005425347222222222,14.735243055555552,0)" xlink:href="#aK"/><use transform="matrix(0.005425347222222222,0,0,0.005425347222222222,18.733723958333332,0)" xlink:href="#av"/></g><path d="M538 24C308 24 148-78 108-271l171-41c32 123 123 178 257 178 156 0 256-77 256-169 0-77-54-128-164-154l-186-44c-203-48-300-148-300-305 0-192 176-326 414-326 230 0 351 112 402 269l-163 42c-31-80-94-158-238-158-133 0-233 69-233 162 0 83 57 129 188 160l169 40c203 48 298 149 298 302 0 196-179 339-441 339" id="aL"/><g id="l"><use transform="matrix(0.005425347222222222,0,0,0.005425347222222222,0,0)" xlink:href="#ar"/><use transform="matrix(0.005425347222222222,0,0,0.005425347222222222,2.6909722222222223,0)" xlink:href="#aL"/></g><g id="m"><use transform="matrix(0.005425347222222222,0,0,0.005425347222222222,0,0)" xlink:href="#ax"/><use transform="matrix(0.005425347222222222,0,0,0.005425347222222222,3.634982638888889,0)" xlink:href="#aI"/><use transform="matrix(0.005425347222222222,0,0,0.005425347222222222,10.205078125,0)" xlink:href="#av"/></g><g id="n"><use transform="matrix(0.005425347222222222,0,0,0.005425347222222222,0,0)" xlink:href="#az"/><use transform="matrix(0.005425347222222222,0,0,0.005425347222222222,6.456163194444445,0)" xlink:href="#aA"/><use transform="matrix(0.005425347222222222,0,0,0.005425347222222222,12.6953125,0)" xlink:href="#au"/><use transform="matrix(0.005425347222222222,0,0,0.005425347222222222,19.25998263888889,0)" xlink:href="#az"/><use transform="matrix(0.005425347222222222,0,0,0.005425347222222222,25.60763888888889,0)" xlink:href="#av"/><use transform="matrix(0.005425347222222222,0,0,0.005425347222222222,32.08550347222222,0)" xlink:href="#aB"/><use transform="matrix(0.005425347222222222,0,0,0.005425347222222222,34.77647569444444,0)" xlink:href="#aB"/><use transform="matrix(0.005425347222222222,0,0,0.005425347222222222,37.467447916666664,0)" xlink:href="#aA"/><use transform="matrix(0.005425347222222222,0,0,0.005425347222222222,43.70659722222222,0)" xlink:href="#ax"/><use transform="matrix(0.005425347222222222,0,0,0.005425347222222222,47.34157986111111,0)" xlink:href="#ar"/><use transform="matrix(0.005425347222222222,0,0,0.005425347222222222,50.03255208333333,0)" xlink:href="#ay"/><use transform="matrix(0.005425347222222222,0,0,0.005425347222222222,56.69487847222221,0)" xlink:href="#au"/></g><g id="o"><use transform="matrix(0.005425347222222222,0,0,0.005425347222222222,0,0)" xlink:href="#aH"/><use transform="matrix(0.005425347222222222,0,0,0.005425347222222222,3.786892361111111,0)" xlink:href="#av"/><use transform="matrix(0.005425347222222222,0,0,0.005425347222222222,10.264756944444445,0)" xlink:href="#av"/></g><g id="p"><use transform="matrix(0.005425347222222222,0,0,0.005425347222222222,0,0)" xlink:href="#aA"/><use transform="matrix(0.005425347222222222,0,0,0.005425347222222222,6.239149305555555,0)" xlink:href="#au"/><use transform="matrix(0.005425347222222222,0,0,0.005425347222222222,12.803819444444445,0)" xlink:href="#aw"/></g><g id="q"><use transform="matrix(0.005425347222222222,0,0,0.005425347222222222,0,0)" xlink:href="#aK"/><use transform="matrix(0.005425347222222222,0,0,0.005425347222222222,3.9984809027777777,0)" xlink:href="#av"/><use transform="matrix(0.005425347222222222,0,0,0.005425347222222222,10.47634548611111,0)" xlink:href="#aH"/><use transform="matrix(0.005425347222222222,0,0,0.005425347222222222,14.588758680555555,0)" xlink:href="#aE"/><use transform="matrix(0.005425347222222222,0,0,0.005425347222222222,21.158854166666664,0)" xlink:href="#au"/><use transform="matrix(0.005425347222222222,0,0,0.005425347222222222,27.723524305555554,0)" xlink:href="#aw"/></g><path d="M295 13c-75 0-135-60-135-135s60-135 135-135 135 60 135 135S370 13 295 13" id="aM"/><path d="M657 26c-323 0-524-166-541-416h195c15 169 171 246 346 246 202 0 356-106 356-265 5-203-294-238-475-293-239-73-380-191-380-389 0-252 224-419 512-419 294 0 499 171 508 396H992c-17-145-151-228-328-228-193 0-321 102-321 242 0 156 175 211 284 241l149 41c160 44 422 134 422 412 0 244-197 432-541 432" id="aN"/><g id="r"><use transform="matrix(0.005425347222222222,0,0,0.005425347222222222,0,0)" xlink:href="#aA"/><use transform="matrix(0.005425347222222222,0,0,0.005425347222222222,6.239149305555555,0)" xlink:href="#aC"/><use transform="matrix(0.005425347222222222,0,0,0.005425347222222222,15.972222222222221,0)" xlink:href="#ay"/><use transform="matrix(0.005425347222222222,0,0,0.005425347222222222,22.63454861111111,0)" xlink:href="#aE"/><use transform="matrix(0.005425347222222222,0,0,0.005425347222222222,29.20464409722222,0)" xlink:href="#au"/><use transform="matrix(0.005425347222222222,0,0,0.005425347222222222,35.76931423611111,0)" xlink:href="#ax"/><use transform="matrix(0.005425347222222222,0,0,0.005425347222222222,39.40429687499999,0)" xlink:href="#aM"/><use transform="matrix(0.005425347222222222,0,0,0.005425347222222222,42.60525173611111,0)" xlink:href="#aM"/><use transform="matrix(0.005425347222222222,0,0,0.005425347222222222,45.80620659722222,0)" xlink:href="#aM"/><use transform="matrix(0.005425347222222222,0,0,0.005425347222222222,49.00716145833333,0)" xlink:href="#aM"/><use transform="matrix(0.005425347222222222,0,0,0.005425347222222222,52.20811631944445,0)" xlink:href="#aN"/><use transform="matrix(0.005425347222222222,0,0,0.005425347222222222,59.33702256944445,0)" xlink:href="#aI"/><use transform="matrix(0.005425347222222222,0,0,0.005425347222222222,65.90711805555556,0)" xlink:href="#ay"/><use transform="matrix(0.005425347222222222,0,0,0.005425347222222222,72.56944444444444,0)" xlink:href="#aE"/><use transform="matrix(0.005425347222222222,0,0,0.005425347222222222,79.13953993055556,0)" xlink:href="#aB"/><use transform="matrix(0.005425347222222222,0,0,0.005425347222222222,81.83051215277779,0)" xlink:href="#aw"/></g><g id="s"><use transform="matrix(0.005425347222222222,0,0,0.005425347222222222,0,0)" xlink:href="#aF"/><use transform="matrix(0.005425347222222222,0,0,0.005425347222222222,6.803385416666666,0)" xlink:href="#aK"/><use transform="matrix(0.005425347222222222,0,0,0.005425347222222222,10.801866319444443,0)" xlink:href="#ay"/><use transform="matrix(0.005425347222222222,0,0,0.005425347222222222,17.464192708333332,0)" xlink:href="#az"/><use transform="matrix(0.005425347222222222,0,0,0.005425347222222222,23.811848958333332,0)" xlink:href="#av"/><use transform="matrix(0.005425347222222222,0,0,0.005425347222222222,30.289713541666664,0)" xlink:href="#av"/><use transform="matrix(0.005425347222222222,0,0,0.005425347222222222,36.767578125,0)" xlink:href="#aw"/></g><path d="M409 0L70-1118h191c89 329 165 560 243 925 75-353 154-601 240-925h192c85 325 161 564 235 922 77-354 157-598 244-922h191L1267 0h-179c-86-307-176-590-250-913C763-588 675-308 588 0H409" id="aO"/><g id="t"><use transform="matrix(0.005425347222222222,0,0,0.005425347222222222,0,0)" xlink:href="#aO"/><use transform="matrix(0.005425347222222222,0,0,0.005425347222222222,9.092881944444445,0)" xlink:href="#ar"/><use transform="matrix(0.005425347222222222,0,0,0.005425347222222222,11.783854166666668,0)" xlink:href="#ax"/><use transform="matrix(0.005425347222222222,0,0,0.005425347222222222,15.418836805555557,0)" xlink:href="#aI"/></g><path d="M383-449c-3-277 82-343 222-425 88-53 156-134 156-250 0-139-108-227-243-227-118 0-235 70-246 236H82c10-251 200-395 436-395 259 0 427 165 427 393 0 161-74 273-203 352-132 80-180 132-178 316H383zm93 462c-75 0-135-60-135-134 0-75 60-135 135-135 74 0 134 60 134 135 0 74-60 134-134 134" id="aP"/><g id="u"><use transform="matrix(0.005425347222222222,0,0,0.005425347222222222,0,0)" xlink:href="#az"/><use transform="matrix(0.005425347222222222,0,0,0.005425347222222222,6.456163194444445,0)" xlink:href="#aA"/><use transform="matrix(0.005425347222222222,0,0,0.005425347222222222,12.6953125,0)" xlink:href="#au"/><use transform="matrix(0.005425347222222222,0,0,0.005425347222222222,19.25998263888889,0)" xlink:href="#az"/><use transform="matrix(0.005425347222222222,0,0,0.005425347222222222,25.60763888888889,0)" xlink:href="#av"/><use transform="matrix(0.005425347222222222,0,0,0.005425347222222222,32.08550347222222,0)" xlink:href="#aB"/><use transform="matrix(0.005425347222222222,0,0,0.005425347222222222,34.77647569444444,0)" xlink:href="#aB"/><use transform="matrix(0.005425347222222222,0,0,0.005425347222222222,37.467447916666664,0)" xlink:href="#aA"/><use transform="matrix(0.005425347222222222,0,0,0.005425347222222222,43.70659722222222,0)" xlink:href="#ax"/><use transform="matrix(0.005425347222222222,0,0,0.005425347222222222,47.34157986111111,0)" xlink:href="#ar"/><use transform="matrix(0.005425347222222222,0,0,0.005425347222222222,50.03255208333333,0)" xlink:href="#ay"/><use transform="matrix(0.005425347222222222,0,0,0.005425347222222222,56.69487847222221,0)" xlink:href="#au"/><use transform="matrix(0.005425347222222222,0,0,0.005425347222222222,63.2595486111111,0)" xlink:href="#aP"/></g><path d="M98-1322v-168h1126v168H757V0H567v-1322H98" id="aQ"/><g id="w"><use transform="matrix(0.005425347222222222,0,0,0.005425347222222222,0,0)" xlink:href="#aQ"/><use transform="matrix(0.005425347222222222,0,0,0.005425347222222222,6.304253472222222,0)" xlink:href="#ay"/><use transform="matrix(0.005425347222222222,0,0,0.005425347222222222,12.96657986111111,0)" xlink:href="#ay"/><use transform="matrix(0.005425347222222222,0,0,0.005425347222222222,19.62890625,0)" xlink:href="#aB"/></g><path d="M783 20c-382 0-661-292-661-764 0-473 279-766 661-766 302 0 548 182 601 489h-190c-42-204-217-313-411-313-268 0-476 208-476 590 0 381 209 588 476 588 195 0 369-110 411-313h190c-52 303-296 489-601 489" id="aR"/><path d="M295 13c-75 0-135-60-135-135s60-135 135-135 135 60 135 135S370 13 295 13zm0-809c-75 0-135-60-135-135s60-135 135-135 135 60 135 135-60 135-135 135" id="aS"/><g id="x"><use transform="matrix(0.005425347222222222,0,0,0.005425347222222222,0,0)" xlink:href="#aR"/><use transform="matrix(0.005425347222222222,0,0,0.005425347222222222,8.116319444444445,0)" xlink:href="#aA"/><use transform="matrix(0.005425347222222222,0,0,0.005425347222222222,14.35546875,0)" xlink:href="#aB"/><use transform="matrix(0.005425347222222222,0,0,0.005425347222222222,17.04644097222222,0)" xlink:href="#aB"/><use transform="matrix(0.005425347222222222,0,0,0.005425347222222222,19.737413194444443,0)" xlink:href="#aL"/><use transform="matrix(0.005425347222222222,0,0,0.005425347222222222,25.602213541666664,0)" xlink:href="#aS"/></g><path d="M934 0v166H0V0h934" id="aT"/><path d="M677 24c-213 0-288-135-325-197h-20V0H158v-1490h180v551h14c37-59 106-193 324-193 279 0 474 222 474 576 0 356-194 580-473 580zm-27-161c209 0 317-186 317-421 0-232-105-413-317-413-206 0-314 166-314 413 0 249 111 421 314 421" id="aU"/><path d="M158 0v-1490h180v865h22l478-493h223L593-638 1096 0H865L456-523 338-412V0H158" id="aV"/><path d="M218-607c0-325 108-727 258-974h175c-155 315-250 682-250 974 0 265 78 531 250 886H476C306-10 218-315 218-607" id="aW"/><path d="M481 0L54-1118h197c107 314 236 620 325 951 87-331 217-637 324-951h197L670 0H481" id="aX"/><path d="M96 279C273-86 346-350 346-607c0-292-95-659-250-974h175c150 246 258 650 258 974 0 297-91 602-258 886H96" id="aY"/><g id="y"><use transform="matrix(0.005425347222222222,0,0,0.005425347222222222,0,0)" xlink:href="#az"/><use transform="matrix(0.005425347222222222,0,0,0.005425347222222222,6.456163194444445,0)" xlink:href="#aA"/><use transform="matrix(0.005425347222222222,0,0,0.005425347222222222,12.6953125,0)" xlink:href="#au"/><use transform="matrix(0.005425347222222222,0,0,0.005425347222222222,19.25998263888889,0)" xlink:href="#az"/><use transform="matrix(0.005425347222222222,0,0,0.005425347222222222,25.60763888888889,0)" xlink:href="#av"/><use transform="matrix(0.005425347222222222,0,0,0.005425347222222222,32.08550347222222,0)" xlink:href="#aB"/><use transform="matrix(0.005425347222222222,0,0,0.005425347222222222,34.77647569444444,0)" xlink:href="#aT"/><use transform="matrix(0.005425347222222222,0,0,0.005425347222222222,40.218098958333336,0)" xlink:href="#aU"/><use transform="matrix(0.005425347222222222,0,0,0.005425347222222222,47.021484375,0)" xlink:href="#ay"/><use transform="matrix(0.005425347222222222,0,0,0.005425347222222222,53.683810763888886,0)" xlink:href="#ay"/><use transform="matrix(0.005425347222222222,0,0,0.005425347222222222,60.34613715277778,0)" xlink:href="#aV"/><use transform="matrix(0.005425347222222222,0,0,0.005425347222222222,66.44422743055554,0)" xlink:href="#ar"/><use transform="matrix(0.005425347222222222,0,0,0.005425347222222222,69.13519965277777,0)" xlink:href="#au"/><use transform="matrix(0.005425347222222222,0,0,0.005425347222222222,75.69986979166666,0)" xlink:href="#aG"/><use transform="matrix(0.005425347222222222,0,0,0.005425347222222222,82.51410590277777,0)" xlink:href="#aW"/><use transform="matrix(0.005425347222222222,0,0,0.005425347222222222,86.56684027777777,0)" xlink:href="#aF"/><use transform="matrix(0.005425347222222222,0,0,0.005425347222222222,93.37022569444444,0)" xlink:href="#aK"/><use transform="matrix(0.005425347222222222,0,0,0.005425347222222222,97.36870659722221,0)" xlink:href="#av"/><use transform="matrix(0.005425347222222222,0,0,0.005425347222222222,103.62955729166666,0)" xlink:href="#aX"/><use transform="matrix(0.005425347222222222,0,0,0.005425347222222222,109.87413194444441,0)" xlink:href="#ar"/><use transform="matrix(0.005425347222222222,0,0,0.005425347222222222,112.56510416666666,0)" xlink:href="#av"/><use transform="matrix(0.005425347222222222,0,0,0.005425347222222222,118.84223090277776,0)" xlink:href="#aO"/><use transform="matrix(0.005425347222222222,0,0,0.005425347222222222,127.9351128472222,0)" xlink:href="#aY"/></g><path d="M600 0v-610L52-1490h220l295 481c50 82 90 150 130 243 40-96 80-164 128-243l294-481h219L790-610V0H600" id="aZ"/><g id="A"><use transform="matrix(0.005425347222222222,0,0,0.005425347222222222,0,0)" xlink:href="#aZ"/><use transform="matrix(0.005425347222222222,0,0,0.005425347222222222,6.689453125,0)" xlink:href="#ay"/><use transform="matrix(0.005425347222222222,0,0,0.005425347222222222,13.35177951388889,0)" xlink:href="#aE"/><use transform="matrix(0.005425347222222222,0,0,0.005425347222222222,19.921875,0)" xlink:href="#aK"/></g><g id="B"><use transform="matrix(0.005425347222222222,0,0,0.005425347222222222,0,0)" xlink:href="#ax"/><use transform="matrix(0.005425347222222222,0,0,0.005425347222222222,3.7977430555555554,0)" xlink:href="#aO"/><use transform="matrix(0.005425347222222222,0,0,0.005425347222222222,12.68988715277778,0)" xlink:href="#ay"/></g><g id="C"><use transform="matrix(0.005425347222222222,0,0,0.005425347222222222,0,0)" xlink:href="#aH"/><use transform="matrix(0.005425347222222222,0,0,0.005425347222222222,4.112413194444445,0)" xlink:href="#aB"/><use transform="matrix(0.005425347222222222,0,0,0.005425347222222222,6.803385416666666,0)" xlink:href="#ar"/><use transform="matrix(0.005425347222222222,0,0,0.005425347222222222,9.49435763888889,0)" xlink:href="#aG"/><use transform="matrix(0.005425347222222222,0,0,0.005425347222222222,16.30859375,0)" xlink:href="#aI"/><use transform="matrix(0.005425347222222222,0,0,0.005425347222222222,22.87868923611111,0)" xlink:href="#ax"/><use transform="matrix(0.005425347222222222,0,0,0.005425347222222222,26.40516493055556,0)" xlink:href="#aL"/></g><g id="D"><use transform="matrix(0.005425347222222222,0,0,0.005425347222222222,0,0)" xlink:href="#aA"/><use transform="matrix(0.005425347222222222,0,0,0.005425347222222222,6.239149305555555,0)" xlink:href="#aK"/><use transform="matrix(0.005425347222222222,0,0,0.005425347222222222,10.237630208333332,0)" xlink:href="#av"/></g><g id="E"><use transform="matrix(0.005425347222222222,0,0,0.005425347222222222,0,0)" xlink:href="#az"/><use transform="matrix(0.005425347222222222,0,0,0.005425347222222222,6.456163194444445,0)" xlink:href="#aA"/><use transform="matrix(0.005425347222222222,0,0,0.005425347222222222,12.6953125,0)" xlink:href="#au"/><use transform="matrix(0.005425347222222222,0,0,0.005425347222222222,19.25998263888889,0)" xlink:href="#az"/><use transform="matrix(0.005425347222222222,0,0,0.005425347222222222,25.60763888888889,0)" xlink:href="#av"/><use transform="matrix(0.005425347222222222,0,0,0.005425347222222222,32.08550347222222,0)" xlink:href="#aB"/><use transform="matrix(0.005425347222222222,0,0,0.005425347222222222,34.77647569444444,0)" xlink:href="#aB"/><use transform="matrix(0.005425347222222222,0,0,0.005425347222222222,37.467447916666664,0)" xlink:href="#av"/><use transform="matrix(0.005425347222222222,0,0,0.005425347222222222,43.9453125,0)" xlink:href="#aw"/><use transform="matrix(0.005425347222222222,0,0,0.005425347222222222,50.748697916666664,0)" xlink:href="#aM"/></g><g id="F"><use transform="matrix(0.005425347222222222,0,0,0.005425347222222222,0,0)" xlink:href="#aZ"/><use transform="matrix(0.005425347222222222,0,0,0.005425347222222222,6.689453125,0)" xlink:href="#ay"/><use transform="matrix(0.005425347222222222,0,0,0.005425347222222222,13.35177951388889,0)" xlink:href="#aE"/></g><g id="G"><use transform="matrix(0.005425347222222222,0,0,0.005425347222222222,0,0)" xlink:href="#aO"/><use transform="matrix(0.005425347222222222,0,0,0.005425347222222222,9.092881944444445,0)" xlink:href="#ar"/><use transform="matrix(0.005425347222222222,0,0,0.005425347222222222,11.783854166666668,0)" xlink:href="#aB"/><use transform="matrix(0.005425347222222222,0,0,0.005425347222222222,14.474826388888888,0)" xlink:href="#aB"/></g><g id="H"><use transform="matrix(0.005425347222222222,0,0,0.005425347222222222,0,0)" xlink:href="#aK"/><use transform="matrix(0.005425347222222222,0,0,0.005425347222222222,3.9984809027777777,0)" xlink:href="#av"/><use transform="matrix(0.005425347222222222,0,0,0.005425347222222222,10.47634548611111,0)" xlink:href="#az"/><use transform="matrix(0.005425347222222222,0,0,0.005425347222222222,16.82400173611111,0)" xlink:href="#av"/><use transform="matrix(0.005425347222222222,0,0,0.005425347222222222,23.301866319444443,0)" xlink:href="#ar"/><use transform="matrix(0.005425347222222222,0,0,0.005425347222222222,25.992838541666664,0)" xlink:href="#aX"/><use transform="matrix(0.005425347222222222,0,0,0.005425347222222222,32.02039930555555,0)" xlink:href="#av"/></g><g id="I"><use transform="matrix(0.005425347222222222,0,0,0.005425347222222222,0,0)" xlink:href="#aD"/><use transform="matrix(0.005425347222222222,0,0,0.005425347222222222,6.027560763888888,0)" xlink:href="#ay"/><use transform="matrix(0.005425347222222222,0,0,0.005425347222222222,12.689887152777777,0)" xlink:href="#aE"/><use transform="matrix(0.005425347222222222,0,0,0.005425347222222222,19.259982638888886,0)" xlink:href="#aK"/></g><g id="J"><use transform="matrix(0.005425347222222222,0,0,0.005425347222222222,0,0)" xlink:href="#aK"/><use transform="matrix(0.005425347222222222,0,0,0.005425347222222222,3.9984809027777777,0)" xlink:href="#av"/><use transform="matrix(0.005425347222222222,0,0,0.005425347222222222,10.47634548611111,0)" xlink:href="#aH"/><use transform="matrix(0.005425347222222222,0,0,0.005425347222222222,14.588758680555555,0)" xlink:href="#aE"/><use transform="matrix(0.005425347222222222,0,0,0.005425347222222222,21.158854166666664,0)" xlink:href="#au"/><use transform="matrix(0.005425347222222222,0,0,0.005425347222222222,27.723524305555554,0)" xlink:href="#aw"/><use transform="matrix(0.005425347222222222,0,0,0.005425347222222222,34.52690972222222,0)" xlink:href="#aM"/><use transform="matrix(0.005425347222222222,0,0,0.005425347222222222,37.727864583333336,0)" xlink:href="#aM"/></g><g id="K"><use transform="matrix(0.005425347222222222,0,0,0.005425347222222222,0,0)" xlink:href="#az"/><use transform="matrix(0.005425347222222222,0,0,0.005425347222222222,6.456163194444445,0)" xlink:href="#aA"/><use transform="matrix(0.005425347222222222,0,0,0.005425347222222222,12.6953125,0)" xlink:href="#au"/><use transform="matrix(0.005425347222222222,0,0,0.005425347222222222,19.25998263888889,0)" xlink:href="#az"/><use transform="matrix(0.005425347222222222,0,0,0.005425347222222222,25.60763888888889,0)" xlink:href="#av"/><use transform="matrix(0.005425347222222222,0,0,0.005425347222222222,32.08550347222222,0)" xlink:href="#aB"/><use transform="matrix(0.005425347222222222,0,0,0.005425347222222222,34.77647569444444,0)" xlink:href="#aT"/><use transform="matrix(0.005425347222222222,0,0,0.005425347222222222,40.218098958333336,0)" xlink:href="#aU"/><use transform="matrix(0.005425347222222222,0,0,0.005425347222222222,47.021484375,0)" xlink:href="#ay"/><use transform="matrix(0.005425347222222222,0,0,0.005425347222222222,53.683810763888886,0)" xlink:href="#ay"/><use transform="matrix(0.005425347222222222,0,0,0.005425347222222222,60.34613715277778,0)" xlink:href="#aV"/><use transform="matrix(0.005425347222222222,0,0,0.005425347222222222,66.44422743055554,0)" xlink:href="#ar"/><use transform="matrix(0.005425347222222222,0,0,0.005425347222222222,69.13519965277777,0)" xlink:href="#au"/><use transform="matrix(0.005425347222222222,0,0,0.005425347222222222,75.69986979166666,0)" xlink:href="#aG"/><use transform="matrix(0.005425347222222222,0,0,0.005425347222222222,82.51410590277777,0)" xlink:href="#aW"/><use transform="matrix(0.005425347222222222,0,0,0.005425347222222222,86.44205729166666,0)" xlink:href="#az"/><use transform="matrix(0.005425347222222222,0,0,0.005425347222222222,92.78971354166666,0)" xlink:href="#ay"/><use transform="matrix(0.005425347222222222,0,0,0.005425347222222222,99.45203993055556,0)" xlink:href="#au"/><use transform="matrix(0.005425347222222222,0,0,0.005425347222222222,106.01671006944441,0)" xlink:href="#aH"/><use transform="matrix(0.005425347222222222,0,0,0.005425347222222222,110.12912326388887,0)" xlink:href="#ar"/><use transform="matrix(0.005425347222222222,0,0,0.005425347222222222,112.8200954861111,0)" xlink:href="#aK"/><use transform="matrix(0.005425347222222222,0,0,0.005425347222222222,117.17664930555556,0)" xlink:href="#aC"/><use transform="matrix(0.005425347222222222,0,0,0.005425347222222222,126.90972222222221,0)" xlink:href="#aY"/></g><g id="L"><use transform="matrix(0.005425347222222222,0,0,0.005425347222222222,0,0)" xlink:href="#az"/><use transform="matrix(0.005425347222222222,0,0,0.005425347222222222,6.456163194444445,0)" xlink:href="#aA"/><use transform="matrix(0.005425347222222222,0,0,0.005425347222222222,12.6953125,0)" xlink:href="#au"/><use transform="matrix(0.005425347222222222,0,0,0.005425347222222222,19.25998263888889,0)" xlink:href="#az"/><use transform="matrix(0.005425347222222222,0,0,0.005425347222222222,25.60763888888889,0)" xlink:href="#av"/><use transform="matrix(0.005425347222222222,0,0,0.005425347222222222,32.08550347222222,0)" xlink:href="#aB"/><use transform="matrix(0.005425347222222222,0,0,0.005425347222222222,34.77647569444444,0)" xlink:href="#aT"/><use transform="matrix(0.005425347222222222,0,0,0.005425347222222222,40.218098958333336,0)" xlink:href="#aU"/><use transform="matrix(0.005425347222222222,0,0,0.005425347222222222,47.021484375,0)" xlink:href="#ay"/><use transform="matrix(0.005425347222222222,0,0,0.005425347222222222,53.683810763888886,0)" xlink:href="#ay"/><use transform="matrix(0.005425347222222222,0,0,0.005425347222222222,60.34613715277778,0)" xlink:href="#aV"/><use transform="matrix(0.005425347222222222,0,0,0.005425347222222222,66.44422743055554,0)" xlink:href="#ar"/><use transform="matrix(0.005425347222222222,0,0,0.005425347222222222,69.13519965277777,0)" xlink:href="#au"/><use transform="matrix(0.005425347222222222,0,0,0.005425347222222222,75.69986979166666,0)" xlink:href="#aG"/><use transform="matrix(0.005425347222222222,0,0,0.005425347222222222,82.51410590277777,0)" xlink:href="#aW"/><use transform="matrix(0.005425347222222222,0,0,0.005425347222222222,86.44205729166666,0)" xlink:href="#az"/><use transform="matrix(0.005425347222222222,0,0,0.005425347222222222,92.78971354166666,0)" xlink:href="#ay"/><use transform="matrix(0.005425347222222222,0,0,0.005425347222222222,99.45203993055556,0)" xlink:href="#au"/><use transform="matrix(0.005425347222222222,0,0,0.005425347222222222,106.01671006944441,0)" xlink:href="#aH"/><use transform="matrix(0.005425347222222222,0,0,0.005425347222222222,110.12912326388887,0)" xlink:href="#ar"/><use transform="matrix(0.005425347222222222,0,0,0.005425347222222222,112.8200954861111,0)" xlink:href="#aK"/><use transform="matrix(0.005425347222222222,0,0,0.005425347222222222,117.17664930555556,0)" xlink:href="#aC"/><use transform="matrix(0.005425347222222222,0,0,0.005425347222222222,126.90972222222221,0)" xlink:href="#aY"/></g><path d="M128 359l88-567h206L266 359H128" id="ba"/><g id="M"><use transform="matrix(0.005425347222222222,0,0,0.005425347222222222,0,0)" xlink:href="#aZ"/><use transform="matrix(0.005425347222222222,0,0,0.005425347222222222,6.689453125,0)" xlink:href="#av"/><use transform="matrix(0.005425347222222222,0,0,0.005425347222222222,13.167317708333332,0)" xlink:href="#aL"/><use transform="matrix(0.005425347222222222,0,0,0.005425347222222222,19.032118055555554,0)" xlink:href="#ba"/></g><g id="N"><use transform="matrix(0.005425347222222222,0,0,0.005425347222222222,0,0)" xlink:href="#aB"/><use transform="matrix(0.005425347222222222,0,0,0.005425347222222222,2.6909722222222223,0)" xlink:href="#ay"/><use transform="matrix(0.005425347222222222,0,0,0.005425347222222222,9.35329861111111,0)" xlink:href="#ay"/><use transform="matrix(0.005425347222222222,0,0,0.005425347222222222,16.015625,0)" xlink:href="#aV"/><use transform="matrix(0.005425347222222222,0,0,0.005425347222222222,22.11371527777778,0)" xlink:href="#aL"/></g><g id="O"><use transform="matrix(0.005425347222222222,0,0,0.005425347222222222,0,0)" xlink:href="#aG"/><use transform="matrix(0.005425347222222222,0,0,0.005425347222222222,6.814236111111111,0)" xlink:href="#ay"/><use transform="matrix(0.005425347222222222,0,0,0.005425347222222222,13.4765625,0)" xlink:href="#ay"/><use transform="matrix(0.005425347222222222,0,0,0.005425347222222222,20.13888888888889,0)" xlink:href="#aw"/><use transform="matrix(0.005425347222222222,0,0,0.005425347222222222,26.94227430555556,0)" xlink:href="#aM"/></g><path d="M789 20c-398 0-667-293-667-764 0-473 273-766 655-766 315 0 558 198 612 487h-196c-61-191-204-311-415-311-262 0-471 207-471 590 0 380 208 588 482 588 249 0 420-165 425-427H828v-166h572v163c0 370-256 606-611 606" id="bb"/><g id="P"><use transform="matrix(0.005425347222222222,0,0,0.005425347222222222,0,0)" xlink:href="#bb"/><use transform="matrix(0.005425347222222222,0,0,0.005425347222222222,8.289930555555555,0)" xlink:href="#ay"/></g><g id="Q"><use transform="matrix(0.005425347222222222,0,0,0.005425347222222222,0,0)" xlink:href="#aA"/><use transform="matrix(0.005425347222222222,0,0,0.005425347222222222,6.239149305555555,0)" xlink:href="#aI"/><use transform="matrix(0.005425347222222222,0,0,0.005425347222222222,12.809244791666666,0)" xlink:href="#av"/><use transform="matrix(0.005425347222222222,0,0,0.005425347222222222,19.395616319444443,0)" xlink:href="#aA"/><use transform="matrix(0.005425347222222222,0,0,0.005425347222222222,25.634765625,0)" xlink:href="#aw"/></g><g id="R"><use transform="matrix(0.005425347222222222,0,0,0.005425347222222222,0,0)" xlink:href="#aA"/><use transform="matrix(0.005425347222222222,0,0,0.005425347222222222,6.239149305555555,0)" xlink:href="#au"/><use transform="matrix(0.005425347222222222,0,0,0.005425347222222222,12.803819444444445,0)" xlink:href="#aw"/></g><g id="S"><use transform="matrix(0.005425347222222222,0,0,0.005425347222222222,0,0)" xlink:href="#az"/><use transform="matrix(0.005425347222222222,0,0,0.005425347222222222,6.456163194444445,0)" xlink:href="#aA"/><use transform="matrix(0.005425347222222222,0,0,0.005425347222222222,12.6953125,0)" xlink:href="#au"/><use transform="matrix(0.005425347222222222,0,0,0.005425347222222222,19.25998263888889,0)" xlink:href="#az"/><use transform="matrix(0.005425347222222222,0,0,0.005425347222222222,25.60763888888889,0)" xlink:href="#av"/><use transform="matrix(0.005425347222222222,0,0,0.005425347222222222,32.08550347222222,0)" xlink:href="#aB"/></g><g id="T"><use transform="matrix(0.005425347222222222,0,0,0.005425347222222222,0,0)" xlink:href="#aZ"/><use transform="matrix(0.005425347222222222,0,0,0.005425347222222222,6.689453125,0)" xlink:href="#ay"/><use transform="matrix(0.005425347222222222,0,0,0.005425347222222222,13.35177951388889,0)" xlink:href="#aE"/></g><g id="U"><use transform="matrix(0.005425347222222222,0,0,0.005425347222222222,0,0)" xlink:href="#aI"/><use transform="matrix(0.005425347222222222,0,0,0.005425347222222222,6.570095486111111,0)" xlink:href="#aA"/><use transform="matrix(0.005425347222222222,0,0,0.005425347222222222,12.646484375,0)" xlink:href="#aX"/><use transform="matrix(0.005425347222222222,0,0,0.005425347222222222,18.67404513888889,0)" xlink:href="#av"/></g><g id="V"><use transform="matrix(0.005425347222222222,0,0,0.005425347222222222,0,0)" xlink:href="#aH"/><use transform="matrix(0.005425347222222222,0,0,0.005425347222222222,4.112413194444445,0)" xlink:href="#aB"/><use transform="matrix(0.005425347222222222,0,0,0.005425347222222222,6.803385416666666,0)" xlink:href="#ar"/><use transform="matrix(0.005425347222222222,0,0,0.005425347222222222,9.49435763888889,0)" xlink:href="#aG"/><use transform="matrix(0.005425347222222222,0,0,0.005425347222222222,16.30859375,0)" xlink:href="#aI"/><use transform="matrix(0.005425347222222222,0,0,0.005425347222222222,22.87868923611111,0)" xlink:href="#ax"/><use transform="matrix(0.005425347222222222,0,0,0.005425347222222222,26.40516493055556,0)" xlink:href="#aL"/><use transform="matrix(0.005425347222222222,0,0,0.005425347222222222,32.26996527777778,0)" xlink:href="#aM"/><use transform="matrix(0.005425347222222222,0,0,0.005425347222222222,35.47092013888889,0)" xlink:href="#aM"/><use transform="matrix(0.005425347222222222,0,0,0.005425347222222222,38.67187500000001,0)" xlink:href="#aM"/><use transform="matrix(0.005425347222222222,0,0,0.005425347222222222,41.87282986111112,0)" xlink:href="#ax"/><use transform="matrix(0.005425347222222222,0,0,0.005425347222222222,45.50781250000001,0)" xlink:href="#aI"/><use transform="matrix(0.005425347222222222,0,0,0.005425347222222222,52.07790798611112,0)" xlink:href="#av"/></g><g id="W"><use transform="matrix(0.005425347222222222,0,0,0.005425347222222222,0,0)" xlink:href="#aL"/><use transform="matrix(0.005425347222222222,0,0,0.005425347222222222,5.864800347222222,0)" xlink:href="#av"/><use transform="matrix(0.005425347222222222,0,0,0.005425347222222222,12.342664930555555,0)" xlink:href="#az"/><use transform="matrix(0.005425347222222222,0,0,0.005425347222222222,18.690321180555557,0)" xlink:href="#ay"/><use transform="matrix(0.005425347222222222,0,0,0.005425347222222222,25.35264756944445,0)" xlink:href="#au"/><use transform="matrix(0.005425347222222222,0,0,0.005425347222222222,31.917317708333336,0)" xlink:href="#aw"/></g><g id="X"><use transform="matrix(0.005425347222222222,0,0,0.005425347222222222,0,0)" xlink:href="#ay"/><use transform="matrix(0.005425347222222222,0,0,0.005425347222222222,6.662326388888888,0)" xlink:href="#au"/><use transform="matrix(0.005425347222222222,0,0,0.005425347222222222,13.226996527777777,0)" xlink:href="#av"/></g><g id="Y"><use transform="matrix(0.005425347222222222,0,0,0.005425347222222222,0,0)" xlink:href="#aH"/><use transform="matrix(0.005425347222222222,0,0,0.005425347222222222,4.112413194444445,0)" xlink:href="#aK"/><use transform="matrix(0.005425347222222222,0,0,0.005425347222222222,8.110894097222221,0)" xlink:href="#ay"/><use transform="matrix(0.005425347222222222,0,0,0.005425347222222222,14.77322048611111,0)" xlink:href="#aC"/></g><path d="M180 0v-1490h190v1322h690V0H180" id="bc"/><g id="Z"><use transform="matrix(0.005425347222222222,0,0,0.005425347222222222,0,0)" xlink:href="#aJ"/><use transform="matrix(0.005425347222222222,0,0,0.005425347222222222,6.722005208333333,0)" xlink:href="#aQ"/><use transform="matrix(0.005425347222222222,0,0,0.005425347222222222,13.89431423611111,0)" xlink:href="#bc"/></g><path d="M180 0v-1490h901v168H370v510h643v168H370V0H180" id="bd"/><path d="M784 20c-382 0-662-292-662-764 0-473 280-766 662-766s660 293 660 766c0 472-278 764-660 764zm0-176c266 0 475-207 475-588 0-383-209-590-475-590-268 0-477 208-477 590 0 380 209 588 477 588" id="be"/><g id="aa"><use transform="matrix(0.005425347222222222,0,0,0.005425347222222222,0,0)" xlink:href="#aN"/><use transform="matrix(0.005425347222222222,0,0,0.005425347222222222,7.12890625,0)" xlink:href="#bd"/><use transform="matrix(0.005425347222222222,0,0,0.005425347222222222,13.688151041666666,0)" xlink:href="#be"/><use transform="matrix(0.005425347222222222,0,0,0.005425347222222222,21.695963541666664,0)" xlink:href="#aM"/></g><path d="M645 0H180v-1490h484c435 0 692 280 692 742 0 466-257 748-711 748zM370-168h263c363 0 539-218 539-580 0-358-176-574-521-574H370v1154" id="bf"/><g id="ab"><use transform="matrix(0.005425347222222222,0,0,0.005425347222222222,0,0)" xlink:href="#bf"/><use transform="matrix(0.005425347222222222,0,0,0.005425347222222222,8.018663194444445,0)" xlink:href="#ay"/></g><g id="ac"><use transform="matrix(0.005425347222222222,0,0,0.005425347222222222,0,0)" xlink:href="#aD"/><use transform="matrix(0.005425347222222222,0,0,0.005425347222222222,6.027560763888888,0)" xlink:href="#ay"/><use transform="matrix(0.005425347222222222,0,0,0.005425347222222222,12.689887152777777,0)" xlink:href="#aE"/></g><g id="ad"><use transform="matrix(0.005425347222222222,0,0,0.005425347222222222,0,0)" xlink:href="#aO"/><use transform="matrix(0.005425347222222222,0,0,0.005425347222222222,9.092881944444445,0)" xlink:href="#aA"/><use transform="matrix(0.005425347222222222,0,0,0.005425347222222222,15.33203125,0)" xlink:href="#au"/><use transform="matrix(0.005425347222222222,0,0,0.005425347222222222,21.89670138888889,0)" xlink:href="#ax"/></g><g id="ae"><use transform="matrix(0.005425347222222222,0,0,0.005425347222222222,0,0)" xlink:href="#az"/><use transform="matrix(0.005425347222222222,0,0,0.005425347222222222,6.456163194444445,0)" xlink:href="#aA"/><use transform="matrix(0.005425347222222222,0,0,0.005425347222222222,12.6953125,0)" xlink:href="#au"/><use transform="matrix(0.005425347222222222,0,0,0.005425347222222222,19.25998263888889,0)" xlink:href="#az"/><use transform="matrix(0.005425347222222222,0,0,0.005425347222222222,25.60763888888889,0)" xlink:href="#av"/><use transform="matrix(0.005425347222222222,0,0,0.005425347222222222,32.08550347222222,0)" xlink:href="#aB"/></g><g id="af"><use transform="matrix(0.005425347222222222,0,0,0.005425347222222222,0,0)" xlink:href="#aU"/><use transform="matrix(0.005425347222222222,0,0,0.005425347222222222,6.803385416666666,0)" xlink:href="#ay"/><use transform="matrix(0.005425347222222222,0,0,0.005425347222222222,13.465711805555552,0)" xlink:href="#ax"/><use transform="matrix(0.005425347222222222,0,0,0.005425347222222222,17.100694444444443,0)" xlink:href="#aI"/><use transform="matrix(0.005425347222222222,0,0,0.005425347222222222,23.670789930555554,0)" xlink:href="#aP"/></g><g id="ag"><use transform="matrix(0.005425347222222222,0,0,0.005425347222222222,0,0)" xlink:href="#aG"/><use transform="matrix(0.005425347222222222,0,0,0.005425347222222222,6.814236111111111,0)" xlink:href="#av"/><use transform="matrix(0.005425347222222222,0,0,0.005425347222222222,13.292100694444445,0)" xlink:href="#ax"/><use transform="matrix(0.005425347222222222,0,0,0.005425347222222222,16.927083333333332,0)" xlink:href="#aT"/><use transform="matrix(0.005425347222222222,0,0,0.005425347222222222,21.994357638888886,0)" xlink:href="#aE"/><use transform="matrix(0.005425347222222222,0,0,0.005425347222222222,28.564453124999993,0)" xlink:href="#aL"/><use transform="matrix(0.005425347222222222,0,0,0.005425347222222222,34.42925347222222,0)" xlink:href="#av"/><use transform="matrix(0.005425347222222222,0,0,0.005425347222222222,40.90711805555556,0)" xlink:href="#aK"/><use transform="matrix(0.005425347222222222,0,0,0.005425347222222222,45.0900607638889,0)" xlink:href="#aT"/><use transform="matrix(0.005425347222222222,0,0,0.005425347222222222,50.15733506944445,0)" xlink:href="#aw"/><use transform="matrix(0.005425347222222222,0,0,0.005425347222222222,56.96072048611112,0)" xlink:href="#av"/><use transform="matrix(0.005425347222222222,0,0,0.005425347222222222,63.43858506944445,0)" xlink:href="#ax"/><use transform="matrix(0.005425347222222222,0,0,0.005425347222222222,67.12782118055556,0)" xlink:href="#aA"/><use transform="matrix(0.005425347222222222,0,0,0.005425347222222222,73.36697048611111,0)" xlink:href="#ar"/><use transform="matrix(0.005425347222222222,0,0,0.005425347222222222,76.05794270833334,0)" xlink:href="#aB"/><use transform="matrix(0.005425347222222222,0,0,0.005425347222222222,78.74891493055557,0)" xlink:href="#aL"/><use transform="matrix(0.005425347222222222,0,0,0.005425347222222222,84.6137152777778,0)" xlink:href="#aW"/><use transform="matrix(0.005425347222222222,0,0,0.005425347222222222,88.6664496527778,0)" xlink:href="#aY"/></g><g id="ah"><use transform="matrix(0.005425347222222222,0,0,0.005425347222222222,0,0)" xlink:href="#aG"/><use transform="matrix(0.005425347222222222,0,0,0.005425347222222222,6.814236111111111,0)" xlink:href="#av"/><use transform="matrix(0.005425347222222222,0,0,0.005425347222222222,13.292100694444445,0)" xlink:href="#ax"/><use transform="matrix(0.005425347222222222,0,0,0.005425347222222222,16.927083333333332,0)" xlink:href="#aT"/><use transform="matrix(0.005425347222222222,0,0,0.005425347222222222,22.36870659722222,0)" xlink:href="#aU"/><use transform="matrix(0.005425347222222222,0,0,0.005425347222222222,29.17209201388889,0)" xlink:href="#ay"/><use transform="matrix(0.005425347222222222,0,0,0.005425347222222222,35.83441840277777,0)" xlink:href="#ay"/><use transform="matrix(0.005425347222222222,0,0,0.005425347222222222,42.49674479166666,0)" xlink:href="#aV"/><use transform="matrix(0.005425347222222222,0,0,0.005425347222222222,48.594835069444436,0)" xlink:href="#ar"/><use transform="matrix(0.005425347222222222,0,0,0.005425347222222222,51.28580729166666,0)" xlink:href="#au"/><use transform="matrix(0.005425347222222222,0,0,0.005425347222222222,57.85047743055554,0)" xlink:href="#aG"/><use transform="matrix(0.005425347222222222,0,0,0.005425347222222222,64.66471354166666,0)" xlink:href="#aW"/><use transform="matrix(0.005425347222222222,0,0,0.005425347222222222,68.71744791666666,0)" xlink:href="#aY"/></g><g id="ai"><use transform="matrix(0.005425347222222222,0,0,0.005425347222222222,0,0)" xlink:href="#aG"/><use transform="matrix(0.005425347222222222,0,0,0.005425347222222222,6.814236111111111,0)" xlink:href="#av"/><use transform="matrix(0.005425347222222222,0,0,0.005425347222222222,13.292100694444445,0)" xlink:href="#ax"/><use transform="matrix(0.005425347222222222,0,0,0.005425347222222222,16.927083333333332,0)" xlink:href="#aT"/><use transform="matrix(0.005425347222222222,0,0,0.005425347222222222,22.36870659722222,0)" xlink:href="#aU"/><use transform="matrix(0.005425347222222222,0,0,0.005425347222222222,29.17209201388889,0)" xlink:href="#ay"/><use transform="matrix(0.005425347222222222,0,0,0.005425347222222222,35.83441840277777,0)" xlink:href="#ay"/><use transform="matrix(0.005425347222222222,0,0,0.005425347222222222,42.49674479166666,0)" xlink:href="#aV"/><use transform="matrix(0.005425347222222222,0,0,0.005425347222222222,48.594835069444436,0)" xlink:href="#ar"/><use transform="matrix(0.005425347222222222,0,0,0.005425347222222222,51.28580729166666,0)" xlink:href="#au"/><use transform="matrix(0.005425347222222222,0,0,0.005425347222222222,57.85047743055554,0)" xlink:href="#aG"/><use transform="matrix(0.005425347222222222,0,0,0.005425347222222222,64.66471354166666,0)" xlink:href="#aW"/><use transform="matrix(0.005425347222222222,0,0,0.005425347222222222,68.71744791666666,0)" xlink:href="#aY"/></g><g id="aj"><use transform="matrix(0.005425347222222222,0,0,0.005425347222222222,0,0)" xlink:href="#aQ"/><use transform="matrix(0.005425347222222222,0,0,0.005425347222222222,7.172309027777778,0)" xlink:href="#aI"/><use transform="matrix(0.005425347222222222,0,0,0.005425347222222222,13.74240451388889,0)" xlink:href="#aA"/><use transform="matrix(0.005425347222222222,0,0,0.005425347222222222,19.981553819444443,0)" xlink:href="#au"/><use transform="matrix(0.005425347222222222,0,0,0.005425347222222222,26.546223958333332,0)" xlink:href="#aV"/><use transform="matrix(0.005425347222222222,0,0,0.005425347222222222,32.64431423611111,0)" xlink:href="#aL"/></g><g id="ak"><use transform="matrix(0.005425347222222222,0,0,0.005425347222222222,0,0)" xlink:href="#aH"/><use transform="matrix(0.005425347222222222,0,0,0.005425347222222222,3.786892361111111,0)" xlink:href="#ay"/><use transform="matrix(0.005425347222222222,0,0,0.005425347222222222,10.44921875,0)" xlink:href="#aK"/></g><g id="al"><use transform="matrix(0.005425347222222222,0,0,0.005425347222222222,0,0)" xlink:href="#aH"/><use transform="matrix(0.005425347222222222,0,0,0.005425347222222222,4.112413194444445,0)" xlink:href="#aB"/><use transform="matrix(0.005425347222222222,0,0,0.005425347222222222,6.803385416666666,0)" xlink:href="#aA"/><use transform="matrix(0.005425347222222222,0,0,0.005425347222222222,13.042534722222221,0)" xlink:href="#aG"/><use transform="matrix(0.005425347222222222,0,0,0.005425347222222222,19.856770833333332,0)" xlink:href="#aG"/><use transform="matrix(0.005425347222222222,0,0,0.005425347222222222,26.671006944444443,0)" xlink:href="#ar"/><use transform="matrix(0.005425347222222222,0,0,0.005425347222222222,29.361979166666664,0)" xlink:href="#au"/><use transform="matrix(0.005425347222222222,0,0,0.005425347222222222,35.92664930555555,0)" xlink:href="#aG"/></g><g id="am"><use transform="matrix(0.005425347222222222,0,0,0.005425347222222222,0,0)" xlink:href="#az"/><use transform="matrix(0.005425347222222222,0,0,0.005425347222222222,6.34765625,0)" xlink:href="#ay"/><use transform="matrix(0.005425347222222222,0,0,0.005425347222222222,13.00998263888889,0)" xlink:href="#au"/><use transform="matrix(0.005425347222222222,0,0,0.005425347222222222,19.57465277777778,0)" xlink:href="#au"/><use transform="matrix(0.005425347222222222,0,0,0.005425347222222222,26.139322916666664,0)" xlink:href="#av"/><use transform="matrix(0.005425347222222222,0,0,0.005425347222222222,32.6171875,0)" xlink:href="#az"/><use transform="matrix(0.005425347222222222,0,0,0.005425347222222222,38.96484375,0)" xlink:href="#ax"/><use transform="matrix(0.005425347222222222,0,0,0.005425347222222222,42.599826388888886,0)" xlink:href="#ar"/><use transform="matrix(0.005425347222222222,0,0,0.005425347222222222,45.29079861111111,0)" xlink:href="#au"/><use transform="matrix(0.005425347222222222,0,0,0.005425347222222222,51.855468749999986,0)" xlink:href="#aG"/></g><g id="an"><use transform="matrix(0.005425347222222222,0,0,0.005425347222222222,0,0)" xlink:href="#aH"/><use transform="matrix(0.005425347222222222,0,0,0.005425347222222222,4.112413194444445,0)" xlink:href="#aB"/><use transform="matrix(0.005425347222222222,0,0,0.005425347222222222,6.803385416666666,0)" xlink:href="#ar"/><use transform="matrix(0.005425347222222222,0,0,0.005425347222222222,9.49435763888889,0)" xlink:href="#aG"/><use transform="matrix(0.005425347222222222,0,0,0.005425347222222222,16.30859375,0)" xlink:href="#aI"/><use transform="matrix(0.005425347222222222,0,0,0.005425347222222222,22.87868923611111,0)" xlink:href="#ax"/><use transform="matrix(0.005425347222222222,0,0,0.005425347222222222,26.513671875,0)" xlink:href="#aM"/></g><path d="M180 0v-1490h510c348 0 508 209 508 474 0 266-160 477-507 477H370V0H180zm190-706h312c236 0 327-133 327-310 0-176-91-307-329-307H370v617" id="bg"/><g id="ao"><use transform="matrix(0.005425347222222222,0,0,0.005425347222222222,0,0)" xlink:href="#bg"/><use transform="matrix(0.005425347222222222,0,0,0.005425347222222222,7.096354166666666,0)" xlink:href="#aB"/><use transform="matrix(0.005425347222222222,0,0,0.005425347222222222,9.78732638888889,0)" xlink:href="#av"/><use transform="matrix(0.005425347222222222,0,0,0.005425347222222222,16.373697916666668,0)" xlink:href="#aA"/><use transform="matrix(0.005425347222222222,0,0,0.005425347222222222,22.61284722222222,0)" xlink:href="#aL"/><use transform="matrix(0.005425347222222222,0,0,0.005425347222222222,28.477647569444443,0)" xlink:href="#av"/></g><g id="ap"><use transform="matrix(0.005425347222222222,0,0,0.005425347222222222,0,0)" xlink:href="#aU"/><use transform="matrix(0.005425347222222222,0,0,0.005425347222222222,6.803385416666666,0)" xlink:href="#ay"/><use transform="matrix(0.005425347222222222,0,0,0.005425347222222222,13.465711805555552,0)" xlink:href="#ax"/><use transform="matrix(0.005425347222222222,0,0,0.005425347222222222,17.100694444444443,0)" xlink:href="#aI"/></g></defs></g></svg>
